<?xml version="1.0" encoding="UTF-8"?>
<svg xmlns="http://www.w3.org/2000/svg" xmlns:xlink="http://www.w3.org/1999/xlink" width="10pt" height="10pt" viewBox="0 0 10 10" version="1.1">
<g id="surface1">
<path style=" stroke:none;fill-rule:nonzero;fill:rgb(0%,0%,0%);fill-opacity:1;" d="M 9.210938 6.265625 C 9.070312 6.265625 8.960938 6.378906 8.960938 6.515625 L 8.960938 8.722656 C 8.960938 9.132812 8.625 9.46875 8.214844 9.46875 L 1.242188 9.46875 C 0.828125 9.46875 0.5 9.132812 0.5 8.722656 L 0.5 2.25 C 0.5 1.835938 0.828125 1.5 1.242188 1.5 L 3.449219 1.5 C 3.585938 1.5 3.695312 1.390625 3.695312 1.253906 C 3.695312 1.117188 3.585938 1.003906 3.449219 1.003906 L 1.242188 1.003906 C 0.554688 1.007812 0 1.5625 0 2.25 L 0 8.722656 C 0 9.410156 0.554688 9.964844 1.242188 9.96875 L 8.214844 9.96875 C 8.902344 9.964844 9.457031 9.410156 9.460938 8.722656 L 9.460938 6.515625 C 9.460938 6.378906 9.347656 6.265625 9.210938 6.265625 Z M 9.210938 6.265625 "/>
<path style=" stroke:none;fill-rule:nonzero;fill:rgb(0%,0%,0%);fill-opacity:1;" d="M 9.359375 0.367188 C 8.921875 -0.0703125 8.214844 -0.0703125 7.777344 0.367188 L 3.34375 4.796875 C 3.3125 4.828125 3.292969 4.867188 3.28125 4.90625 L 2.695312 7.015625 C 2.671875 7.101562 2.695312 7.191406 2.761719 7.257812 C 2.824219 7.320312 2.917969 7.34375 3.003906 7.320312 L 5.109375 6.734375 C 5.148438 6.726562 5.1875 6.703125 5.21875 6.671875 L 9.648438 2.238281 C 10.085938 1.800781 10.085938 1.09375 9.648438 0.65625 Z M 3.886719 4.960938 L 7.515625 1.332031 L 8.6875 2.5 L 5.054688 6.132812 Z M 3.652344 5.429688 L 4.585938 6.367188 L 3.296875 6.722656 Z M 9.300781 1.886719 L 9.039062 2.148438 L 7.867188 0.980469 L 8.128906 0.71875 C 8.375 0.476562 8.765625 0.476562 9.007812 0.71875 L 9.300781 1.007812 C 9.542969 1.25 9.542969 1.644531 9.300781 1.886719 Z M 9.300781 1.886719 "/>
</g>
</svg>
