<?xml version="1.0" encoding="UTF-8"?>
<svg xmlns="http://www.w3.org/2000/svg" xmlns:xlink="http://www.w3.org/1999/xlink" width="150pt" height="150pt" viewBox="0 0 150 150" version="1.1" enable-background="new 0 0 150 150" preserveAspectRatio="xMidYMin meet" xml:space="preserve">
<g id="surface1">
<path style=" stroke:none;fill-rule:nonzero;fill:#fff;fill-opacity:1;" d="M 72.703125 100.550781 C 68.414062 100.550781 64.941406 104.125 64.941406 108.414062 C 64.941406 112.601562 68.3125 116.277344 72.703125 116.277344 C 77.09375 116.277344 80.566406 112.601562 80.566406 108.414062 C 80.566406 104.125 76.992188 100.550781 72.703125 100.550781 Z M 72.703125 100.550781 "/>
<path style=" stroke:none;fill-rule:nonzero;fill:#fff;fill-opacity:1;" d="M 74.03125 41.015625 C 60.242188 41.015625 53.914062 49.1875 53.914062 54.699219 C 53.914062 58.683594 57.28125 60.519531 60.039062 60.519531 C 65.554688 60.519531 63.308594 52.65625 73.722656 52.65625 C 78.828125 52.65625 82.914062 54.90625 82.914062 59.601562 C 82.914062 65.117188 77.195312 68.28125 73.824219 71.140625 C 70.863281 73.695312 66.984375 77.882812 66.984375 86.664062 C 66.984375 91.972656 68.414062 93.507812 72.601562 93.507812 C 77.605469 93.507812 78.625 91.257812 78.625 89.320312 C 78.625 84.007812 78.726562 80.945312 84.34375 76.554688 C 87.101562 74.410156 95.78125 67.464844 95.78125 57.867188 C 95.78125 48.265625 87.101562 41.015625 74.03125 41.015625 Z M 74.03125 41.015625 "/>
<path style=" stroke:none;fill-rule:nonzero;fill:#fff;fill-opacity:1;" d="M 75 0 C 33.550781 0 0 33.542969 0 75 L 0 144.140625 C 0 147.375 2.625 150 5.859375 150 L 75 150 C 116.449219 150 150 116.457031 150 75 C 150 33.550781 116.457031 0 75 0 Z M 75 138.28125 L 11.71875 138.28125 L 11.71875 75 C 11.71875 40.027344 40.023438 11.71875 75 11.71875 C 109.972656 11.71875 138.28125 40.023438 138.28125 75 C 138.28125 109.972656 109.976562 138.28125 75 138.28125 Z M 75 138.28125 "/>
</g>
</svg>
