<?xml version="1.0" encoding="UTF-8"?>
<svg xmlns="http://www.w3.org/2000/svg" xmlns:xlink="http://www.w3.org/1999/xlink" width="15pt" height="15pt" viewBox="0 0 15 15" version="1.1">
<g id="surface1">
<path style=" stroke:none;fill-rule:nonzero;fill:#fff;fill-opacity:1;" d="M 11.671875 10.304688 C 11.117188 10.304688 10.617188 10.519531 10.234375 10.867188 L 5.023438 7.828125 C 5.066406 7.664062 5.089844 7.492188 5.089844 7.316406 C 5.089844 7.144531 5.066406 6.972656 5.023438 6.804688 L 10.183594 3.796875 C 10.570312 4.160156 11.09375 4.390625 11.671875 4.390625 C 12.882812 4.390625 13.867188 3.402344 13.867188 2.195312 C 13.867188 0.984375 12.882812 0 11.671875 0 C 10.464844 0 9.476562 0.984375 9.476562 2.195312 C 9.476562 2.371094 9.503906 2.542969 9.542969 2.707031 L 4.390625 5.714844 C 3.996094 5.351562 3.472656 5.125 2.898438 5.125 C 1.6875 5.125 0.703125 6.109375 0.703125 7.316406 C 0.703125 8.527344 1.6875 9.511719 2.898438 9.511719 C 3.472656 9.511719 3.996094 9.285156 4.390625 8.917969 L 9.601562 11.957031 C 9.5625 12.109375 9.539062 12.273438 9.539062 12.4375 C 9.539062 13.617188 10.496094 14.570312 11.671875 14.570312 C 12.851562 14.570312 13.804688 13.617188 13.804688 12.4375 C 13.804688 11.261719 12.851562 10.304688 11.671875 10.304688 Z M 11.671875 10.304688 "/>
</g>
</svg>
