<?xml version="1.0" encoding="UTF-8"?>
<svg xmlns="http://www.w3.org/2000/svg" xmlns:xlink="http://www.w3.org/1999/xlink" width="150pt" height="150pt" viewBox="0 0 150 150" version="1.1">
<g id="surface1">
<path style=" stroke:none;fill-rule:nonzero;fill:#fff;fill-opacity:1;" d="M 145.710938 20.507812 C 143.503906 18.296875 139.925781 18.292969 137.71875 20.496094 L 69.898438 88.136719 L 45.429688 61.5625 C 43.3125 59.265625 39.738281 59.117188 37.441406 61.230469 C 35.140625 63.347656 34.996094 66.921875 37.109375 69.21875 L 65.566406 100.121094 C 66.605469 101.253906 68.066406 101.914062 69.601562 101.945312 C 69.644531 101.945312 69.683594 101.945312 69.722656 101.945312 C 71.21875 101.945312 72.65625 101.351562 73.714844 100.296875 L 145.699219 28.5 C 147.910156 26.296875 147.914062 22.71875 145.710938 20.507812 Z M 145.710938 20.507812 "/>
<path style=" stroke:none;fill-rule:nonzero;fill:#fff;fill-opacity:1;" d="M 144.347656 69.347656 C 141.222656 69.347656 138.695312 71.878906 138.695312 75 C 138.695312 110.121094 110.121094 138.695312 75 138.695312 C 39.878906 138.695312 11.304688 110.121094 11.304688 75 C 11.304688 39.878906 39.878906 11.304688 75 11.304688 C 78.121094 11.304688 80.652344 8.777344 80.652344 5.652344 C 80.652344 2.53125 78.121094 0 75 0 C 33.644531 0 0 33.644531 0 75 C 0 116.355469 33.644531 150 75 150 C 116.355469 150 150 116.355469 150 75 C 150 71.878906 147.46875 69.347656 144.347656 69.347656 Z M 144.347656 69.347656 "/>
</g>
</svg>
