<?xml version="1.0" encoding="UTF-8"?>
<svg xmlns="http://www.w3.org/2000/svg" xmlns:xlink="http://www.w3.org/1999/xlink" width="150pt" height="150pt" viewBox="0 0 150 150" version="1.1">
<g id="surface1">
<path style=" stroke:none;fill-rule:nonzero;fill:#fff;fill-opacity:1;" d="M 75 0 C 33.542969 0 0 33.546875 0 75 C 0 116.457031 33.546875 150 75 150 C 116.457031 150 150 116.453125 150 75 C 150 33.542969 116.453125 0 75 0 Z M 75 138.28125 C 40.023438 138.28125 11.71875 109.976562 11.71875 75 C 11.71875 40.023438 40.023438 11.71875 75 11.71875 C 109.976562 11.71875 138.28125 40.023438 138.28125 75 C 138.28125 109.976562 109.976562 138.28125 75 138.28125 Z M 75 138.28125 "/>
<path style=" stroke:none;fill-rule:nonzero;fill:#fff;fill-opacity:1;" d="M 75 37.757812 C 71.765625 37.757812 69.140625 40.378906 69.140625 43.617188 L 69.140625 81.347656 C 69.140625 84.585938 71.765625 87.207031 75 87.207031 C 78.234375 87.207031 80.859375 84.585938 80.859375 81.347656 L 80.859375 43.617188 C 80.859375 40.378906 78.234375 37.757812 75 37.757812 Z M 75 37.757812 "/>
<path style=" stroke:none;fill-rule:nonzero;fill:#fff;fill-opacity:1;" d="M 82.910156 102.292969 C 82.910156 106.660156 79.367188 110.203125 75 110.203125 C 70.632812 110.203125 67.089844 106.660156 67.089844 102.292969 C 67.089844 97.925781 70.632812 94.382812 75 94.382812 C 79.367188 94.382812 82.910156 97.925781 82.910156 102.292969 Z M 82.910156 102.292969 "/>
</g>
</svg>
